<svg width="1117.000000" height="240.000000" viewBox="0 0 1117 240" fill="none" xmlns="http://www.w3.org/2000/svg" xmlns:xlink="http://www.w3.org/1999/xlink">
	<desc>
			Created with Pixso.
	</desc>
	<defs>
		<filter id="filter_36_669_dd" x="0.000000" y="0.000000" width="1117.000000" height="240.000000" filterUnits="userSpaceOnUse" color-interpolation-filters="sRGB">
			<feFlood flood-opacity="0" result="BackgroundImageFix"/>
			<feColorMatrix in="SourceAlpha" type="matrix" values="0 0 0 0 0 0 0 0 0 0 0 0 0 0 0 0 0 0 127 0" result="hardAlpha"/>
			<feOffset dx="0" dy="20"/>
			<feGaussianBlur stdDeviation="16.6667"/>
			<feComposite in2="hardAlpha" operator="out" k2="-1" k3="1"/>
			<feColorMatrix type="matrix" values="0 0 0 0 0.74902 0 0 0 0 0.082353 0 0 0 0 0.42353 0 0 0 0.051 0"/>
			<feBlend mode="normal" in2="BackgroundImageFix" result="effect_dropShadow_1"/>
			<feBlend mode="normal" in="SourceGraphic" in2="effect_dropShadow_1" result="shape"/>
		</filter>
	</defs>
	<g filter="url(#filter_36_669_dd)">
		<path id="Card" d="M70 30L1047 30C1058.05 30 1067 38.95 1067 50L1067 170L50 170L50 50C50 38.95 58.95 30 70 30Z" fill="#4D44B5" fill-opacity="1.000000" fill-rule="evenodd"/>
	</g>
	<mask id="mask36_671" mask-type="alpha" maskUnits="userSpaceOnUse" x="50.000000" y="30.000000" width="1017.000000" height="140.000000">
		<path id="Mask" d="M70 30L1047 30C1058.05 30 1067 38.95 1067 50L1067 170L50 170L50 50C50 38.95 58.95 30 70 30Z" fill="#428777" fill-opacity="1.000000" fill-rule="evenodd"/>
	</mask>
	<g mask="url(#mask36_671)">
		<rect id="Rectangle" x="612.000000" y="119.564056" rx="123.795929" width="247.591858" height="259.130371" stroke="#FB7D5B" stroke-opacity="1.000000" stroke-width="16.000000"/>
	</g>
	<g mask="url(#mask36_671)">
		<rect id="Rectangle" x="771.010742" y="69.652100" rx="123.795929" width="247.591858" height="259.130371" stroke="#FCC43E" stroke-opacity="1.000000" stroke-width="16.000000"/>
	</g>
</svg>
