<svg width="23.975098" height="23.799999" viewBox="0 0 23.9751 23.8" fill="none" xmlns="http://www.w3.org/2000/svg" xmlns:xlink="http://www.w3.org/1999/xlink">
	<desc>
			Created with Pixso.
	</desc>
	<defs/>
	<path id="Vector" d="M23.6 21.7L18 16.1C19.29 14.4 20.1 12.3 20.1 10C20.1 4.5 15.6 0 10.1 0C4.6 0 0 4.5 0 10C0 15.5 4.5 20 10 20C12.29 20 14.5 19.2 16.2 17.79L21.79 23.4C22 23.6 22.39 23.8 22.7 23.8C23 23.8 23.29 23.7 23.6 23.4C24.1 23 24.1 22.2 23.6 21.7ZM2.5 10C2.5 5.9 5.89 2.5 10 2.5C14.1 2.5 17.5 5.9 17.5 10C17.5 14.1 14.1 17.5 10 17.5C5.89 17.5 2.5 14.2 2.5 10Z" fill="#4D44B5" fill-opacity="1.000000" fill-rule="nonzero"/>
</svg>
